<?xml version="1.0" encoding="utf-8" standalone="no"?>
<!DOCTYPE svg PUBLIC "-//W3C//DTD SVG 1.1//EN"
  "http://www.w3.org/Graphics/SVG/1.1/DTD/svg11.dtd">
<!-- Created with matplotlib (http://matplotlib.org/) -->
<svg height="386pt" version="1.1" viewBox="0 0 622 386" width="622pt" xmlns="http://www.w3.org/2000/svg" xmlns:xlink="http://www.w3.org/1999/xlink">
 <defs>
  <style type="text/css">
*{stroke-linecap:butt;stroke-linejoin:round;}
  </style>
 </defs>
 <g id="figure_1">
  <g id="patch_1">
   <path d="M 0 386.232903 
L 622.745 386.232903 
L 622.745 0 
L 0 0 
z
" style="fill:#ffffff;"/>
  </g>
  <g id="axes_1">
   <g id="patch_2">
    <path d="M 54.045 325.19625 
L 612.045 325.19625 
L 612.045 31.43625 
L 54.045 31.43625 
z
" style="fill:#ffffff;"/>
   </g>
   <g id="PolyCollection_1">
    <path clip-path="url(#p2d3439e22b)" d="M 79.408636 216.106988 
L 79.408636 170.758102 
L 80.837574 195.951928 
L 82.266511 206.029458 
L 83.695448 185.874398 
L 85.124385 180.835633 
L 86.553323 180.835633 
L 87.98226 180.835633 
L 89.411197 180.835633 
L 90.840134 195.951928 
L 92.269072 206.029458 
L 93.698009 221.145753 
L 95.126946 185.874398 
L 96.555883 160.680572 
L 97.984821 160.680572 
L 99.413758 160.680572 
L 100.842695 145.564277 
L 102.271633 125.409217 
L 103.70057 160.680572 
L 105.129507 175.796867 
L 106.558444 170.758102 
L 107.987382 130.447982 
L 109.416319 130.447982 
L 110.845256 125.409217 
L 112.274193 160.680572 
L 113.703131 170.758102 
L 115.132068 170.758102 
L 116.561005 125.409217 
L 117.989942 180.835633 
L 119.41888 185.874398 
L 120.847817 190.913163 
L 122.276754 216.106988 
L 123.705691 206.029458 
L 125.134629 190.913163 
L 126.563566 216.106988 
L 127.992503 231.223283 
L 129.42144 226.184518 
L 130.850378 241.300813 
L 132.279315 221.145753 
L 133.708252 236.262048 
L 135.13719 261.455873 
L 136.566127 241.300813 
L 137.995064 261.455873 
L 139.424001 236.262048 
L 140.852939 221.145753 
L 142.281876 206.029458 
L 143.710813 180.835633 
L 145.13975 216.106988 
L 146.568688 216.106988 
L 147.997625 206.029458 
L 149.426562 216.106988 
L 150.855499 226.184518 
L 152.284437 216.106988 
L 153.713374 236.262048 
L 155.142311 216.106988 
L 156.571248 206.029458 
L 158.000186 175.796867 
L 159.429123 170.758102 
L 160.85806 185.874398 
L 162.286997 170.758102 
L 163.715935 190.913163 
L 165.144872 226.184518 
L 166.573809 251.378343 
L 168.002746 261.455873 
L 169.431684 221.145753 
L 170.860621 216.106988 
L 172.289558 175.796867 
L 173.718496 175.796867 
L 175.147433 195.951928 
L 176.57637 170.758102 
L 178.005307 175.796867 
L 179.434245 180.835633 
L 180.863182 175.796867 
L 182.292119 180.835633 
L 183.721056 185.874398 
L 185.149994 206.029458 
L 186.578931 185.874398 
L 188.007868 206.029458 
L 189.436805 190.913163 
L 190.865743 190.913163 
L 192.29468 180.835633 
L 193.723617 175.796867 
L 195.152554 180.835633 
L 196.581492 185.874398 
L 198.010429 170.758102 
L 199.439366 180.835633 
L 200.868303 180.835633 
L 202.297241 160.680572 
L 203.726178 145.564277 
L 205.155115 150.603042 
L 206.584052 160.680572 
L 208.01299 190.913163 
L 209.441927 190.913163 
L 210.870864 175.796867 
L 212.299802 180.835633 
L 213.728739 175.796867 
L 215.157676 160.680572 
L 216.586613 160.680572 
L 218.015551 175.796867 
L 219.444488 190.913163 
L 220.873425 185.874398 
L 222.302362 150.603042 
L 223.7313 170.758102 
L 225.160237 170.758102 
L 226.589174 170.758102 
L 228.018111 175.796867 
L 229.447049 135.486747 
L 230.875986 160.680572 
L 232.304923 160.680572 
L 233.73386 140.525512 
L 235.162798 135.486747 
L 236.591735 170.758102 
L 238.020672 150.603042 
L 239.449609 170.758102 
L 240.878547 150.603042 
L 242.307484 150.603042 
L 243.736421 135.486747 
L 245.165359 160.680572 
L 246.594296 150.603042 
L 248.023233 150.603042 
L 249.45217 115.331687 
L 250.881108 59.905272 
L 252.310045 44.788977 
L 253.738982 69.982802 
L 255.167919 100.215392 
L 256.596857 145.564277 
L 258.025794 145.564277 
L 259.454731 135.486747 
L 260.883668 115.331687 
L 262.312606 95.176627 
L 263.741543 140.525512 
L 265.17048 160.680572 
L 266.599417 115.331687 
L 268.028355 105.254157 
L 269.457292 140.525512 
L 270.886229 115.331687 
L 272.315166 49.827742 
L 273.744104 115.331687 
L 275.173041 145.564277 
L 276.601978 145.564277 
L 278.030915 145.564277 
L 279.459853 115.331687 
L 280.88879 105.254157 
L 282.317727 115.331687 
L 283.746665 125.409217 
L 285.175602 80.060332 
L 286.604539 115.331687 
L 288.033476 130.447982 
L 289.462414 140.525512 
L 290.891351 115.331687 
L 292.320288 135.486747 
L 293.749225 135.486747 
L 295.178163 125.409217 
L 296.6071 125.409217 
L 298.036037 150.603042 
L 299.464974 100.215392 
L 300.893912 125.409217 
L 302.322849 105.254157 
L 303.751786 125.409217 
L 305.180723 130.447982 
L 306.609661 115.331687 
L 308.038598 105.254157 
L 309.467535 105.254157 
L 310.896472 115.331687 
L 312.32541 130.447982 
L 313.754347 125.409217 
L 315.183284 105.254157 
L 316.612222 105.254157 
L 318.041159 115.331687 
L 319.470096 125.409217 
L 320.899033 105.254157 
L 322.327971 115.331687 
L 323.756908 100.215392 
L 325.185845 115.331687 
L 326.614782 115.331687 
L 328.04372 130.447982 
L 329.472657 125.409217 
L 330.901594 105.254157 
L 332.330531 80.060332 
L 333.759469 69.982802 
L 335.188406 85.099097 
L 336.617343 115.331687 
L 338.04628 80.060332 
L 339.475218 44.788977 
L 340.904155 80.060332 
L 342.333092 105.254157 
L 343.762029 54.866507 
L 345.190967 90.137862 
L 346.619904 95.176627 
L 348.048841 125.409217 
L 349.477778 115.331687 
L 350.906716 95.176627 
L 352.335653 115.331687 
L 353.76459 105.254157 
L 355.193528 115.331687 
L 356.622465 95.176627 
L 358.051402 80.060332 
L 359.480339 95.176627 
L 360.909277 105.254157 
L 362.338214 85.099097 
L 363.767151 100.215392 
L 365.196088 115.331687 
L 366.625026 54.866507 
L 368.053963 85.099097 
L 369.4829 90.137862 
L 370.911837 105.254157 
L 372.340775 115.331687 
L 373.769712 115.331687 
L 375.198649 95.176627 
L 376.627586 105.254157 
L 378.056524 95.176627 
L 379.485461 95.176627 
L 380.914398 69.982802 
L 382.343335 54.866507 
L 383.772273 69.982802 
L 385.20121 80.060332 
L 386.630147 80.060332 
L 388.059085 69.982802 
L 389.488022 85.099097 
L 390.916959 85.099097 
L 392.345896 80.060332 
L 393.774834 95.176627 
L 395.203771 90.137862 
L 396.632708 80.060332 
L 398.061645 80.060332 
L 399.490583 100.215392 
L 400.91952 80.060332 
L 402.348457 85.099097 
L 403.777394 85.099097 
L 405.206332 90.137862 
L 406.635269 85.099097 
L 408.064206 85.099097 
L 409.493143 69.982802 
L 410.922081 49.827742 
L 412.351018 80.060332 
L 413.779955 80.060332 
L 415.208892 115.331687 
L 416.63783 105.254157 
L 418.066767 115.331687 
L 419.495704 90.137862 
L 420.924641 95.176627 
L 422.353579 105.254157 
L 423.782516 95.176627 
L 425.211453 125.409217 
L 426.640391 115.331687 
L 428.069328 90.137862 
L 429.498265 115.331687 
L 430.927202 115.331687 
L 432.35614 100.215392 
L 433.785077 115.331687 
L 435.214014 115.331687 
L 436.642951 115.331687 
L 438.071889 115.331687 
L 439.500826 85.099097 
L 440.929763 115.331687 
L 442.3587 105.254157 
L 443.787638 95.176627 
L 445.216575 115.331687 
L 446.645512 95.176627 
L 448.074449 90.137862 
L 449.503387 115.331687 
L 450.932324 100.215392 
L 452.361261 105.254157 
L 453.790198 95.176627 
L 455.219136 80.060332 
L 456.648073 115.331687 
L 458.07701 90.137862 
L 459.505948 90.137862 
L 460.934885 115.331687 
L 462.363822 90.137862 
L 463.792759 95.176627 
L 465.221697 115.331687 
L 466.650634 115.331687 
L 468.079571 130.447982 
L 469.508508 130.447982 
L 470.937446 125.409217 
L 472.366383 115.331687 
L 473.79532 125.409217 
L 475.224257 125.409217 
L 476.653195 160.680572 
L 478.082132 170.758102 
L 479.511069 160.680572 
L 480.940006 125.409217 
L 482.368944 130.447982 
L 483.797881 145.564277 
L 485.226818 135.486747 
L 486.655755 135.486747 
L 488.084693 145.564277 
L 489.51363 130.447982 
L 490.942567 140.525512 
L 492.371504 125.409217 
L 493.800442 140.525512 
L 495.229379 145.564277 
L 496.658316 150.603042 
L 498.087254 140.525512 
L 499.516191 150.603042 
L 500.945128 160.680572 
L 502.374065 170.758102 
L 503.803003 150.603042 
L 505.23194 170.758102 
L 506.660877 150.603042 
L 508.089814 175.796867 
L 509.518752 150.603042 
L 510.947689 160.680572 
L 512.376626 185.874398 
L 513.805563 170.758102 
L 515.234501 170.758102 
L 516.663438 170.758102 
L 518.092375 175.796867 
L 519.521312 175.796867 
L 520.95025 170.758102 
L 522.379187 150.603042 
L 523.808124 160.680572 
L 525.237061 180.835633 
L 526.665999 180.835633 
L 528.094936 180.835633 
L 529.523873 185.874398 
L 530.95281 185.874398 
L 532.381748 185.874398 
L 533.810685 185.874398 
L 535.239622 185.874398 
L 536.66856 175.796867 
L 538.097497 140.525512 
L 539.526434 170.758102 
L 540.955371 180.835633 
L 542.384309 160.680572 
L 543.813246 185.874398 
L 545.242183 190.913163 
L 546.67112 185.874398 
L 548.100058 206.029458 
L 549.528995 206.029458 
L 550.957932 221.145753 
L 552.386869 241.300813 
L 553.815807 221.145753 
L 555.244744 216.106988 
L 556.673681 221.145753 
L 558.102618 175.796867 
L 559.531556 206.029458 
L 560.960493 216.106988 
L 562.38943 206.029458 
L 563.818367 175.796867 
L 565.247305 150.603042 
L 566.676242 140.525512 
L 568.105179 175.796867 
L 569.534117 175.796867 
L 570.963054 170.758102 
L 572.391991 190.913163 
L 573.820928 170.758102 
L 575.249866 160.680572 
L 576.678803 150.603042 
L 578.10774 180.835633 
L 579.536677 185.874398 
L 580.965615 175.796867 
L 582.394552 170.758102 
L 583.823489 170.758102 
L 585.252426 190.913163 
L 586.681364 175.796867 
L 586.681364 206.029458 
L 586.681364 206.029458 
L 585.252426 216.106988 
L 583.823489 195.951928 
L 582.394552 190.913163 
L 580.965615 195.951928 
L 579.536677 231.223283 
L 578.10774 216.106988 
L 576.678803 185.874398 
L 575.249866 170.758102 
L 573.820928 206.029458 
L 572.391991 216.106988 
L 570.963054 206.029458 
L 569.534117 221.145753 
L 568.105179 195.951928 
L 566.676242 180.835633 
L 565.247305 175.796867 
L 563.818367 216.106988 
L 562.38943 241.300813 
L 560.960493 261.455873 
L 559.531556 261.455873 
L 558.102618 221.145753 
L 556.673681 251.378343 
L 555.244744 241.300813 
L 553.815807 261.455873 
L 552.386869 276.572168 
L 550.957932 261.455873 
L 549.528995 261.455873 
L 548.100058 241.300813 
L 546.67112 206.029458 
L 545.242183 216.106988 
L 543.813246 216.106988 
L 542.384309 206.029458 
L 540.955371 231.223283 
L 539.526434 206.029458 
L 538.097497 185.874398 
L 536.66856 216.106988 
L 535.239622 231.223283 
L 533.810685 261.455873 
L 532.381748 261.455873 
L 530.95281 261.455873 
L 529.523873 251.378343 
L 528.094936 236.262048 
L 526.665999 226.184518 
L 525.237061 221.145753 
L 523.808124 216.106988 
L 522.379187 175.796867 
L 520.95025 226.184518 
L 519.521312 226.184518 
L 518.092375 216.106988 
L 516.663438 221.145753 
L 515.234501 206.029458 
L 513.805563 195.951928 
L 512.376626 206.029458 
L 510.947689 206.029458 
L 509.518752 190.913163 
L 508.089814 216.106988 
L 506.660877 216.106988 
L 505.23194 216.106988 
L 503.803003 216.106988 
L 502.374065 221.145753 
L 500.945128 206.029458 
L 499.516191 206.029458 
L 498.087254 170.758102 
L 496.658316 190.913163 
L 495.229379 175.796867 
L 493.800442 180.835633 
L 492.371504 216.106988 
L 490.942567 170.758102 
L 489.51363 160.680572 
L 488.084693 170.758102 
L 486.655755 206.029458 
L 485.226818 170.758102 
L 483.797881 160.680572 
L 482.368944 160.680572 
L 480.940006 185.874398 
L 479.511069 226.184518 
L 478.082132 216.106988 
L 476.653195 190.913163 
L 475.224257 160.680572 
L 473.79532 150.603042 
L 472.366383 140.525512 
L 470.937446 206.029458 
L 469.508508 216.106988 
L 468.079571 180.835633 
L 466.650634 175.796867 
L 465.221697 150.603042 
L 463.792759 140.525512 
L 462.363822 140.525512 
L 460.934885 135.486747 
L 459.505948 160.680572 
L 458.07701 170.758102 
L 456.648073 170.758102 
L 455.219136 140.525512 
L 453.790198 145.564277 
L 452.361261 135.486747 
L 450.932324 125.409217 
L 449.503387 160.680572 
L 448.074449 135.486747 
L 446.645512 135.486747 
L 445.216575 135.486747 
L 443.787638 125.409217 
L 442.3587 135.486747 
L 440.929763 135.486747 
L 439.500826 150.603042 
L 438.071889 170.758102 
L 436.642951 170.758102 
L 435.214014 150.603042 
L 433.785077 135.486747 
L 432.35614 130.447982 
L 430.927202 140.525512 
L 429.498265 140.525512 
L 428.069328 160.680572 
L 426.640391 160.680572 
L 425.211453 150.603042 
L 423.782516 160.680572 
L 422.353579 145.564277 
L 420.924641 150.603042 
L 419.495704 145.564277 
L 418.066767 135.486747 
L 416.63783 135.486747 
L 415.208892 125.409217 
L 413.779955 125.409217 
L 412.351018 125.409217 
L 410.922081 150.603042 
L 409.493143 160.680572 
L 408.064206 140.525512 
L 406.635269 125.409217 
L 405.206332 125.409217 
L 403.777394 140.525512 
L 402.348457 125.409217 
L 400.91952 115.331687 
L 399.490583 125.409217 
L 398.061645 115.331687 
L 396.632708 105.254157 
L 395.203771 115.331687 
L 393.774834 115.331687 
L 392.345896 125.409217 
L 390.916959 150.603042 
L 389.488022 125.409217 
L 388.059085 135.486747 
L 386.630147 115.331687 
L 385.20121 140.525512 
L 383.772273 140.525512 
L 382.343335 145.564277 
L 380.914398 150.603042 
L 379.485461 130.447982 
L 378.056524 145.564277 
L 376.627586 135.486747 
L 375.198649 125.409217 
L 373.769712 135.486747 
L 372.340775 135.486747 
L 370.911837 130.447982 
L 369.4829 125.409217 
L 368.053963 125.409217 
L 366.625026 140.525512 
L 365.196088 140.525512 
L 363.767151 130.447982 
L 362.338214 145.564277 
L 360.909277 145.564277 
L 359.480339 140.525512 
L 358.051402 125.409217 
L 356.622465 125.409217 
L 355.193528 125.409217 
L 353.76459 125.409217 
L 352.335653 130.447982 
L 350.906716 135.486747 
L 349.477778 135.486747 
L 348.048841 135.486747 
L 346.619904 125.409217 
L 345.190967 125.409217 
L 343.762029 150.603042 
L 342.333092 140.525512 
L 340.904155 135.486747 
L 339.475218 125.409217 
L 338.04628 150.603042 
L 336.617343 135.486747 
L 335.188406 140.525512 
L 333.759469 130.447982 
L 332.330531 150.603042 
L 330.901594 160.680572 
L 329.472657 160.680572 
L 328.04372 150.603042 
L 326.614782 140.525512 
L 325.185845 135.486747 
L 323.756908 140.525512 
L 322.327971 160.680572 
L 320.899033 180.835633 
L 319.470096 170.758102 
L 318.041159 160.680572 
L 316.612222 175.796867 
L 315.183284 160.680572 
L 313.754347 160.680572 
L 312.32541 160.680572 
L 310.896472 140.525512 
L 309.467535 175.796867 
L 308.038598 160.680572 
L 306.609661 160.680572 
L 305.180723 160.680572 
L 303.751786 150.603042 
L 302.322849 180.835633 
L 300.893912 170.758102 
L 299.464974 175.796867 
L 298.036037 180.835633 
L 296.6071 170.758102 
L 295.178163 175.796867 
L 293.749225 170.758102 
L 292.320288 150.603042 
L 290.891351 160.680572 
L 289.462414 160.680572 
L 288.033476 150.603042 
L 286.604539 175.796867 
L 285.175602 180.835633 
L 283.746665 170.758102 
L 282.317727 180.835633 
L 280.88879 195.951928 
L 279.459853 180.835633 
L 278.030915 175.796867 
L 276.601978 170.758102 
L 275.173041 160.680572 
L 273.744104 150.603042 
L 272.315166 170.758102 
L 270.886229 160.680572 
L 269.457292 160.680572 
L 268.028355 150.603042 
L 266.599417 175.796867 
L 265.17048 170.758102 
L 263.741543 160.680572 
L 262.312606 185.874398 
L 260.883668 180.835633 
L 259.454731 180.835633 
L 258.025794 180.835633 
L 256.596857 180.835633 
L 255.167919 195.951928 
L 253.738982 160.680572 
L 252.310045 125.409217 
L 250.881108 195.951928 
L 249.45217 206.029458 
L 248.023233 190.913163 
L 246.594296 190.913163 
L 245.165359 190.913163 
L 243.736421 190.913163 
L 242.307484 216.106988 
L 240.878547 206.029458 
L 239.449609 195.951928 
L 238.020672 226.184518 
L 236.591735 216.106988 
L 235.162798 180.835633 
L 233.73386 170.758102 
L 232.304923 206.029458 
L 230.875986 190.913163 
L 229.447049 195.951928 
L 228.018111 190.913163 
L 226.589174 206.029458 
L 225.160237 226.184518 
L 223.7313 251.378343 
L 222.302362 236.262048 
L 220.873425 216.106988 
L 219.444488 221.145753 
L 218.015551 216.106988 
L 216.586613 206.029458 
L 215.157676 206.029458 
L 213.728739 206.029458 
L 212.299802 251.378343 
L 210.870864 241.300813 
L 209.441927 236.262048 
L 208.01299 226.184518 
L 206.584052 226.184518 
L 205.155115 226.184518 
L 203.726178 236.262048 
L 202.297241 251.378343 
L 200.868303 216.106988 
L 199.439366 206.029458 
L 198.010429 216.106988 
L 196.581492 216.106988 
L 195.152554 251.378343 
L 193.723617 231.223283 
L 192.29468 251.378343 
L 190.865743 261.455873 
L 189.436805 241.300813 
L 188.007868 231.223283 
L 186.578931 226.184518 
L 185.149994 231.223283 
L 183.721056 226.184518 
L 182.292119 226.184518 
L 180.863182 206.029458 
L 179.434245 216.106988 
L 178.005307 206.029458 
L 176.57637 226.184518 
L 175.147433 221.145753 
L 173.718496 195.951928 
L 172.289558 241.300813 
L 170.860621 306.804758 
L 169.431684 296.727228 
L 168.002746 276.572168 
L 166.573809 286.649698 
L 165.144872 271.533403 
L 163.715935 261.455873 
L 162.286997 236.262048 
L 160.85806 236.262048 
L 159.429123 226.184518 
L 158.000186 251.378343 
L 156.571248 286.649698 
L 155.142311 266.494638 
L 153.713374 261.455873 
L 152.284437 261.455873 
L 150.855499 261.455873 
L 149.426562 261.455873 
L 147.997625 261.455873 
L 146.568688 241.300813 
L 145.13975 251.378343 
L 143.710813 261.455873 
L 142.281876 236.262048 
L 140.852939 251.378343 
L 139.424001 311.843523 
L 137.995064 306.804758 
L 136.566127 296.727228 
L 135.13719 276.572168 
L 133.708252 296.727228 
L 132.279315 286.649698 
L 130.850378 296.727228 
L 129.42144 286.649698 
L 127.992503 276.572168 
L 126.563566 251.378343 
L 125.134629 261.455873 
L 123.705691 261.455873 
L 122.276754 261.455873 
L 120.847817 251.378343 
L 119.41888 236.262048 
L 117.989942 216.106988 
L 116.561005 180.835633 
L 115.132068 226.184518 
L 113.703131 216.106988 
L 112.274193 206.029458 
L 110.845256 180.835633 
L 109.416319 160.680572 
L 107.987382 170.758102 
L 106.558444 195.951928 
L 105.129507 216.106988 
L 103.70057 206.029458 
L 102.271633 180.835633 
L 100.842695 170.758102 
L 99.413758 195.951928 
L 97.984821 190.913163 
L 96.555883 216.106988 
L 95.126946 231.223283 
L 93.698009 251.378343 
L 92.269072 251.378343 
L 90.840134 216.106988 
L 89.411197 206.029458 
L 87.98226 206.029458 
L 86.553323 195.951928 
L 85.124385 195.951928 
L 83.695448 231.223283 
L 82.266511 231.223283 
L 80.837574 226.184518 
L 79.408636 216.106988 
z
" style="fill:#0000ff;fill-opacity:0.1;"/>
   </g>
   <g id="matplotlib.axis_1">
    <g id="xtick_1">
     <g id="line2d_1">
      <defs>
       <path d="M 0 0 
L 0 3.5 
" id="m99ab53fd79" style="stroke:#000000;stroke-width:0.8;"/>
      </defs>
      <g>
       <use style="stroke:#000000;stroke-width:0.8;" x="79.408636" xlink:href="#m99ab53fd79" y="325.19625"/>
      </g>
     </g>
     <g id="text_1">
      <!-- 2014-01 -->
      <defs>
       <path d="M 19.1875 8.296875 
L 53.609375 8.296875 
L 53.609375 0 
L 7.328125 0 
L 7.328125 8.296875 
Q 12.9375 14.109375 22.625 23.890625 
Q 32.328125 33.6875 34.8125 36.53125 
Q 39.546875 41.84375 41.421875 45.53125 
Q 43.3125 49.21875 43.3125 52.78125 
Q 43.3125 58.59375 39.234375 62.25 
Q 35.15625 65.921875 28.609375 65.921875 
Q 23.96875 65.921875 18.8125 64.3125 
Q 13.671875 62.703125 7.8125 59.421875 
L 7.8125 69.390625 
Q 13.765625 71.78125 18.9375 73 
Q 24.125 74.21875 28.421875 74.21875 
Q 39.75 74.21875 46.484375 68.546875 
Q 53.21875 62.890625 53.21875 53.421875 
Q 53.21875 48.921875 51.53125 44.890625 
Q 49.859375 40.875 45.40625 35.40625 
Q 44.1875 33.984375 37.640625 27.21875 
Q 31.109375 20.453125 19.1875 8.296875 
z
" id="DejaVuSans-32"/>
       <path d="M 31.78125 66.40625 
Q 24.171875 66.40625 20.328125 58.90625 
Q 16.5 51.421875 16.5 36.375 
Q 16.5 21.390625 20.328125 13.890625 
Q 24.171875 6.390625 31.78125 6.390625 
Q 39.453125 6.390625 43.28125 13.890625 
Q 47.125 21.390625 47.125 36.375 
Q 47.125 51.421875 43.28125 58.90625 
Q 39.453125 66.40625 31.78125 66.40625 
z
M 31.78125 74.21875 
Q 44.046875 74.21875 50.515625 64.515625 
Q 56.984375 54.828125 56.984375 36.375 
Q 56.984375 17.96875 50.515625 8.265625 
Q 44.046875 -1.421875 31.78125 -1.421875 
Q 19.53125 -1.421875 13.0625 8.265625 
Q 6.59375 17.96875 6.59375 36.375 
Q 6.59375 54.828125 13.0625 64.515625 
Q 19.53125 74.21875 31.78125 74.21875 
z
" id="DejaVuSans-30"/>
       <path d="M 12.40625 8.296875 
L 28.515625 8.296875 
L 28.515625 63.921875 
L 10.984375 60.40625 
L 10.984375 69.390625 
L 28.421875 72.90625 
L 38.28125 72.90625 
L 38.28125 8.296875 
L 54.390625 8.296875 
L 54.390625 0 
L 12.40625 0 
z
" id="DejaVuSans-31"/>
       <path d="M 37.796875 64.3125 
L 12.890625 25.390625 
L 37.796875 25.390625 
z
M 35.203125 72.90625 
L 47.609375 72.90625 
L 47.609375 25.390625 
L 58.015625 25.390625 
L 58.015625 17.1875 
L 47.609375 17.1875 
L 47.609375 0 
L 37.796875 0 
L 37.796875 17.1875 
L 4.890625 17.1875 
L 4.890625 26.703125 
z
" id="DejaVuSans-34"/>
       <path d="M 4.890625 31.390625 
L 31.203125 31.390625 
L 31.203125 23.390625 
L 4.890625 23.390625 
z
" id="DejaVuSans-2d"/>
      </defs>
      <g transform="translate(19.848923 376.151204)rotate(-30)scale(0.16 -0.16)">
       <use xlink:href="#DejaVuSans-32"/>
       <use x="63.623047" xlink:href="#DejaVuSans-30"/>
       <use x="127.246094" xlink:href="#DejaVuSans-31"/>
       <use x="190.869141" xlink:href="#DejaVuSans-34"/>
       <use x="254.492188" xlink:href="#DejaVuSans-2d"/>
       <use x="290.576172" xlink:href="#DejaVuSans-30"/>
       <use x="354.199219" xlink:href="#DejaVuSans-31"/>
      </g>
     </g>
    </g>
    <g id="xtick_2">
     <g id="line2d_2">
      <g>
       <use style="stroke:#000000;stroke-width:0.8;" x="163.715935" xlink:href="#m99ab53fd79" y="325.19625"/>
      </g>
     </g>
     <g id="text_2">
      <!-- 2014-03 -->
      <defs>
       <path d="M 40.578125 39.3125 
Q 47.65625 37.796875 51.625 33 
Q 55.609375 28.21875 55.609375 21.1875 
Q 55.609375 10.40625 48.1875 4.484375 
Q 40.765625 -1.421875 27.09375 -1.421875 
Q 22.515625 -1.421875 17.65625 -0.515625 
Q 12.796875 0.390625 7.625 2.203125 
L 7.625 11.71875 
Q 11.71875 9.328125 16.59375 8.109375 
Q 21.484375 6.890625 26.8125 6.890625 
Q 36.078125 6.890625 40.9375 10.546875 
Q 45.796875 14.203125 45.796875 21.1875 
Q 45.796875 27.640625 41.28125 31.265625 
Q 36.765625 34.90625 28.71875 34.90625 
L 20.21875 34.90625 
L 20.21875 43.015625 
L 29.109375 43.015625 
Q 36.375 43.015625 40.234375 45.921875 
Q 44.09375 48.828125 44.09375 54.296875 
Q 44.09375 59.90625 40.109375 62.90625 
Q 36.140625 65.921875 28.71875 65.921875 
Q 24.65625 65.921875 20.015625 65.03125 
Q 15.375 64.15625 9.8125 62.3125 
L 9.8125 71.09375 
Q 15.4375 72.65625 20.34375 73.4375 
Q 25.25 74.21875 29.59375 74.21875 
Q 40.828125 74.21875 47.359375 69.109375 
Q 53.90625 64.015625 53.90625 55.328125 
Q 53.90625 49.265625 50.4375 45.09375 
Q 46.96875 40.921875 40.578125 39.3125 
z
" id="DejaVuSans-33"/>
      </defs>
      <g transform="translate(104.156221 376.151204)rotate(-30)scale(0.16 -0.16)">
       <use xlink:href="#DejaVuSans-32"/>
       <use x="63.623047" xlink:href="#DejaVuSans-30"/>
       <use x="127.246094" xlink:href="#DejaVuSans-31"/>
       <use x="190.869141" xlink:href="#DejaVuSans-34"/>
       <use x="254.492188" xlink:href="#DejaVuSans-2d"/>
       <use x="290.576172" xlink:href="#DejaVuSans-30"/>
       <use x="354.199219" xlink:href="#DejaVuSans-33"/>
      </g>
     </g>
    </g>
    <g id="xtick_3">
     <g id="line2d_3">
      <g>
       <use style="stroke:#000000;stroke-width:0.8;" x="250.881108" xlink:href="#m99ab53fd79" y="325.19625"/>
      </g>
     </g>
     <g id="text_3">
      <!-- 2014-05 -->
      <defs>
       <path d="M 10.796875 72.90625 
L 49.515625 72.90625 
L 49.515625 64.59375 
L 19.828125 64.59375 
L 19.828125 46.734375 
Q 21.96875 47.46875 24.109375 47.828125 
Q 26.265625 48.1875 28.421875 48.1875 
Q 40.625 48.1875 47.75 41.5 
Q 54.890625 34.8125 54.890625 23.390625 
Q 54.890625 11.625 47.5625 5.09375 
Q 40.234375 -1.421875 26.90625 -1.421875 
Q 22.3125 -1.421875 17.546875 -0.640625 
Q 12.796875 0.140625 7.71875 1.703125 
L 7.71875 11.625 
Q 12.109375 9.234375 16.796875 8.0625 
Q 21.484375 6.890625 26.703125 6.890625 
Q 35.15625 6.890625 40.078125 11.328125 
Q 45.015625 15.765625 45.015625 23.390625 
Q 45.015625 31 40.078125 35.4375 
Q 35.15625 39.890625 26.703125 39.890625 
Q 22.75 39.890625 18.8125 39.015625 
Q 14.890625 38.140625 10.796875 36.28125 
z
" id="DejaVuSans-35"/>
      </defs>
      <g transform="translate(191.321394 376.151204)rotate(-30)scale(0.16 -0.16)">
       <use xlink:href="#DejaVuSans-32"/>
       <use x="63.623047" xlink:href="#DejaVuSans-30"/>
       <use x="127.246094" xlink:href="#DejaVuSans-31"/>
       <use x="190.869141" xlink:href="#DejaVuSans-34"/>
       <use x="254.492188" xlink:href="#DejaVuSans-2d"/>
       <use x="290.576172" xlink:href="#DejaVuSans-30"/>
       <use x="354.199219" xlink:href="#DejaVuSans-35"/>
      </g>
     </g>
    </g>
    <g id="xtick_4">
     <g id="line2d_4">
      <g>
       <use style="stroke:#000000;stroke-width:0.8;" x="338.04628" xlink:href="#m99ab53fd79" y="325.19625"/>
      </g>
     </g>
     <g id="text_4">
      <!-- 2014-07 -->
      <defs>
       <path d="M 8.203125 72.90625 
L 55.078125 72.90625 
L 55.078125 68.703125 
L 28.609375 0 
L 18.3125 0 
L 43.21875 64.59375 
L 8.203125 64.59375 
z
" id="DejaVuSans-37"/>
      </defs>
      <g transform="translate(278.486567 376.151204)rotate(-30)scale(0.16 -0.16)">
       <use xlink:href="#DejaVuSans-32"/>
       <use x="63.623047" xlink:href="#DejaVuSans-30"/>
       <use x="127.246094" xlink:href="#DejaVuSans-31"/>
       <use x="190.869141" xlink:href="#DejaVuSans-34"/>
       <use x="254.492188" xlink:href="#DejaVuSans-2d"/>
       <use x="290.576172" xlink:href="#DejaVuSans-30"/>
       <use x="354.199219" xlink:href="#DejaVuSans-37"/>
      </g>
     </g>
    </g>
    <g id="xtick_5">
     <g id="line2d_5">
      <g>
       <use style="stroke:#000000;stroke-width:0.8;" x="426.640391" xlink:href="#m99ab53fd79" y="325.19625"/>
      </g>
     </g>
     <g id="text_5">
      <!-- 2014-09 -->
      <defs>
       <path d="M 10.984375 1.515625 
L 10.984375 10.5 
Q 14.703125 8.734375 18.5 7.8125 
Q 22.3125 6.890625 25.984375 6.890625 
Q 35.75 6.890625 40.890625 13.453125 
Q 46.046875 20.015625 46.78125 33.40625 
Q 43.953125 29.203125 39.59375 26.953125 
Q 35.25 24.703125 29.984375 24.703125 
Q 19.046875 24.703125 12.671875 31.3125 
Q 6.296875 37.9375 6.296875 49.421875 
Q 6.296875 60.640625 12.9375 67.421875 
Q 19.578125 74.21875 30.609375 74.21875 
Q 43.265625 74.21875 49.921875 64.515625 
Q 56.59375 54.828125 56.59375 36.375 
Q 56.59375 19.140625 48.40625 8.859375 
Q 40.234375 -1.421875 26.421875 -1.421875 
Q 22.703125 -1.421875 18.890625 -0.6875 
Q 15.09375 0.046875 10.984375 1.515625 
z
M 30.609375 32.421875 
Q 37.25 32.421875 41.125 36.953125 
Q 45.015625 41.5 45.015625 49.421875 
Q 45.015625 57.28125 41.125 61.84375 
Q 37.25 66.40625 30.609375 66.40625 
Q 23.96875 66.40625 20.09375 61.84375 
Q 16.21875 57.28125 16.21875 49.421875 
Q 16.21875 41.5 20.09375 36.953125 
Q 23.96875 32.421875 30.609375 32.421875 
z
" id="DejaVuSans-39"/>
      </defs>
      <g transform="translate(367.080677 376.151204)rotate(-30)scale(0.16 -0.16)">
       <use xlink:href="#DejaVuSans-32"/>
       <use x="63.623047" xlink:href="#DejaVuSans-30"/>
       <use x="127.246094" xlink:href="#DejaVuSans-31"/>
       <use x="190.869141" xlink:href="#DejaVuSans-34"/>
       <use x="254.492188" xlink:href="#DejaVuSans-2d"/>
       <use x="290.576172" xlink:href="#DejaVuSans-30"/>
       <use x="354.199219" xlink:href="#DejaVuSans-39"/>
      </g>
     </g>
    </g>
    <g id="xtick_6">
     <g id="line2d_6">
      <g>
       <use style="stroke:#000000;stroke-width:0.8;" x="513.805563" xlink:href="#m99ab53fd79" y="325.19625"/>
      </g>
     </g>
     <g id="text_6">
      <!-- 2014-11 -->
      <g transform="translate(454.24585 376.151204)rotate(-30)scale(0.16 -0.16)">
       <use xlink:href="#DejaVuSans-32"/>
       <use x="63.623047" xlink:href="#DejaVuSans-30"/>
       <use x="127.246094" xlink:href="#DejaVuSans-31"/>
       <use x="190.869141" xlink:href="#DejaVuSans-34"/>
       <use x="254.492188" xlink:href="#DejaVuSans-2d"/>
       <use x="290.576172" xlink:href="#DejaVuSans-31"/>
       <use x="354.199219" xlink:href="#DejaVuSans-31"/>
      </g>
     </g>
    </g>
    <g id="xtick_7">
     <g id="line2d_7">
      <g>
       <use style="stroke:#000000;stroke-width:0.8;" x="600.970736" xlink:href="#m99ab53fd79" y="325.19625"/>
      </g>
     </g>
     <g id="text_7">
      <!-- 2015-01 -->
      <g transform="translate(541.411023 376.151204)rotate(-30)scale(0.16 -0.16)">
       <use xlink:href="#DejaVuSans-32"/>
       <use x="63.623047" xlink:href="#DejaVuSans-30"/>
       <use x="127.246094" xlink:href="#DejaVuSans-31"/>
       <use x="190.869141" xlink:href="#DejaVuSans-35"/>
       <use x="254.492188" xlink:href="#DejaVuSans-2d"/>
       <use x="290.576172" xlink:href="#DejaVuSans-30"/>
       <use x="354.199219" xlink:href="#DejaVuSans-31"/>
      </g>
     </g>
    </g>
   </g>
   <g id="matplotlib.axis_2">
    <g id="ytick_1">
     <g id="line2d_8">
      <defs>
       <path d="M 0 0 
L -3.5 0 
" id="mdfe9e7b026" style="stroke:#000000;stroke-width:0.8;"/>
      </defs>
      <g>
       <use style="stroke:#000000;stroke-width:0.8;" x="54.045" xlink:href="#mdfe9e7b026" y="301.765993"/>
      </g>
     </g>
     <g id="text_8">
      <!-- 20 -->
      <g transform="translate(26.685 307.844743)scale(0.16 -0.16)">
       <use xlink:href="#DejaVuSans-32"/>
       <use x="63.623047" xlink:href="#DejaVuSans-30"/>
      </g>
     </g>
    </g>
    <g id="ytick_2">
     <g id="line2d_9">
      <g>
       <use style="stroke:#000000;stroke-width:0.8;" x="54.045" xlink:href="#mdfe9e7b026" y="251.378343"/>
      </g>
     </g>
     <g id="text_9">
      <!-- 30 -->
      <g transform="translate(26.685 257.457093)scale(0.16 -0.16)">
       <use xlink:href="#DejaVuSans-33"/>
       <use x="63.623047" xlink:href="#DejaVuSans-30"/>
      </g>
     </g>
    </g>
    <g id="ytick_3">
     <g id="line2d_10">
      <g>
       <use style="stroke:#000000;stroke-width:0.8;" x="54.045" xlink:href="#mdfe9e7b026" y="200.990693"/>
      </g>
     </g>
     <g id="text_10">
      <!-- 40 -->
      <g transform="translate(26.685 207.069443)scale(0.16 -0.16)">
       <use xlink:href="#DejaVuSans-34"/>
       <use x="63.623047" xlink:href="#DejaVuSans-30"/>
      </g>
     </g>
    </g>
    <g id="ytick_4">
     <g id="line2d_11">
      <g>
       <use style="stroke:#000000;stroke-width:0.8;" x="54.045" xlink:href="#mdfe9e7b026" y="150.603042"/>
      </g>
     </g>
     <g id="text_11">
      <!-- 50 -->
      <g transform="translate(26.685 156.681792)scale(0.16 -0.16)">
       <use xlink:href="#DejaVuSans-35"/>
       <use x="63.623047" xlink:href="#DejaVuSans-30"/>
      </g>
     </g>
    </g>
    <g id="ytick_5">
     <g id="line2d_12">
      <g>
       <use style="stroke:#000000;stroke-width:0.8;" x="54.045" xlink:href="#mdfe9e7b026" y="100.215392"/>
      </g>
     </g>
     <g id="text_12">
      <!-- 60 -->
      <defs>
       <path d="M 33.015625 40.375 
Q 26.375 40.375 22.484375 35.828125 
Q 18.609375 31.296875 18.609375 23.390625 
Q 18.609375 15.53125 22.484375 10.953125 
Q 26.375 6.390625 33.015625 6.390625 
Q 39.65625 6.390625 43.53125 10.953125 
Q 47.40625 15.53125 47.40625 23.390625 
Q 47.40625 31.296875 43.53125 35.828125 
Q 39.65625 40.375 33.015625 40.375 
z
M 52.59375 71.296875 
L 52.59375 62.3125 
Q 48.875 64.0625 45.09375 64.984375 
Q 41.3125 65.921875 37.59375 65.921875 
Q 27.828125 65.921875 22.671875 59.328125 
Q 17.53125 52.734375 16.796875 39.40625 
Q 19.671875 43.65625 24.015625 45.921875 
Q 28.375 48.1875 33.59375 48.1875 
Q 44.578125 48.1875 50.953125 41.515625 
Q 57.328125 34.859375 57.328125 23.390625 
Q 57.328125 12.15625 50.6875 5.359375 
Q 44.046875 -1.421875 33.015625 -1.421875 
Q 20.359375 -1.421875 13.671875 8.265625 
Q 6.984375 17.96875 6.984375 36.375 
Q 6.984375 53.65625 15.1875 63.9375 
Q 23.390625 74.21875 37.203125 74.21875 
Q 40.921875 74.21875 44.703125 73.484375 
Q 48.484375 72.75 52.59375 71.296875 
z
" id="DejaVuSans-36"/>
      </defs>
      <g transform="translate(26.685 106.294142)scale(0.16 -0.16)">
       <use xlink:href="#DejaVuSans-36"/>
       <use x="63.623047" xlink:href="#DejaVuSans-30"/>
      </g>
     </g>
    </g>
    <g id="ytick_6">
     <g id="line2d_13">
      <g>
       <use style="stroke:#000000;stroke-width:0.8;" x="54.045" xlink:href="#mdfe9e7b026" y="49.827742"/>
      </g>
     </g>
     <g id="text_13">
      <!-- 70 -->
      <g transform="translate(26.685 55.906492)scale(0.16 -0.16)">
       <use xlink:href="#DejaVuSans-37"/>
       <use x="63.623047" xlink:href="#DejaVuSans-30"/>
      </g>
     </g>
    </g>
    <g id="text_14">
     <!-- Temperature (F) -->
     <defs>
      <path d="M -0.296875 72.90625 
L 61.375 72.90625 
L 61.375 64.59375 
L 35.5 64.59375 
L 35.5 0 
L 25.59375 0 
L 25.59375 64.59375 
L -0.296875 64.59375 
z
" id="DejaVuSans-54"/>
      <path d="M 56.203125 29.59375 
L 56.203125 25.203125 
L 14.890625 25.203125 
Q 15.484375 15.921875 20.484375 11.0625 
Q 25.484375 6.203125 34.421875 6.203125 
Q 39.59375 6.203125 44.453125 7.46875 
Q 49.3125 8.734375 54.109375 11.28125 
L 54.109375 2.78125 
Q 49.265625 0.734375 44.1875 -0.34375 
Q 39.109375 -1.421875 33.890625 -1.421875 
Q 20.796875 -1.421875 13.15625 6.1875 
Q 5.515625 13.8125 5.515625 26.8125 
Q 5.515625 40.234375 12.765625 48.109375 
Q 20.015625 56 32.328125 56 
Q 43.359375 56 49.78125 48.890625 
Q 56.203125 41.796875 56.203125 29.59375 
z
M 47.21875 32.234375 
Q 47.125 39.59375 43.09375 43.984375 
Q 39.0625 48.390625 32.421875 48.390625 
Q 24.90625 48.390625 20.390625 44.140625 
Q 15.875 39.890625 15.1875 32.171875 
z
" id="DejaVuSans-65"/>
      <path d="M 52 44.1875 
Q 55.375 50.25 60.0625 53.125 
Q 64.75 56 71.09375 56 
Q 79.640625 56 84.28125 50.015625 
Q 88.921875 44.046875 88.921875 33.015625 
L 88.921875 0 
L 79.890625 0 
L 79.890625 32.71875 
Q 79.890625 40.578125 77.09375 44.375 
Q 74.3125 48.1875 68.609375 48.1875 
Q 61.625 48.1875 57.5625 43.546875 
Q 53.515625 38.921875 53.515625 30.90625 
L 53.515625 0 
L 44.484375 0 
L 44.484375 32.71875 
Q 44.484375 40.625 41.703125 44.40625 
Q 38.921875 48.1875 33.109375 48.1875 
Q 26.21875 48.1875 22.15625 43.53125 
Q 18.109375 38.875 18.109375 30.90625 
L 18.109375 0 
L 9.078125 0 
L 9.078125 54.6875 
L 18.109375 54.6875 
L 18.109375 46.1875 
Q 21.1875 51.21875 25.484375 53.609375 
Q 29.78125 56 35.6875 56 
Q 41.65625 56 45.828125 52.96875 
Q 50 49.953125 52 44.1875 
z
" id="DejaVuSans-6d"/>
      <path d="M 18.109375 8.203125 
L 18.109375 -20.796875 
L 9.078125 -20.796875 
L 9.078125 54.6875 
L 18.109375 54.6875 
L 18.109375 46.390625 
Q 20.953125 51.265625 25.265625 53.625 
Q 29.59375 56 35.59375 56 
Q 45.5625 56 51.78125 48.09375 
Q 58.015625 40.1875 58.015625 27.296875 
Q 58.015625 14.40625 51.78125 6.484375 
Q 45.5625 -1.421875 35.59375 -1.421875 
Q 29.59375 -1.421875 25.265625 0.953125 
Q 20.953125 3.328125 18.109375 8.203125 
z
M 48.6875 27.296875 
Q 48.6875 37.203125 44.609375 42.84375 
Q 40.53125 48.484375 33.40625 48.484375 
Q 26.265625 48.484375 22.1875 42.84375 
Q 18.109375 37.203125 18.109375 27.296875 
Q 18.109375 17.390625 22.1875 11.75 
Q 26.265625 6.109375 33.40625 6.109375 
Q 40.53125 6.109375 44.609375 11.75 
Q 48.6875 17.390625 48.6875 27.296875 
z
" id="DejaVuSans-70"/>
      <path d="M 41.109375 46.296875 
Q 39.59375 47.171875 37.8125 47.578125 
Q 36.03125 48 33.890625 48 
Q 26.265625 48 22.1875 43.046875 
Q 18.109375 38.09375 18.109375 28.8125 
L 18.109375 0 
L 9.078125 0 
L 9.078125 54.6875 
L 18.109375 54.6875 
L 18.109375 46.1875 
Q 20.953125 51.171875 25.484375 53.578125 
Q 30.03125 56 36.53125 56 
Q 37.453125 56 38.578125 55.875 
Q 39.703125 55.765625 41.0625 55.515625 
z
" id="DejaVuSans-72"/>
      <path d="M 34.28125 27.484375 
Q 23.390625 27.484375 19.1875 25 
Q 14.984375 22.515625 14.984375 16.5 
Q 14.984375 11.71875 18.140625 8.90625 
Q 21.296875 6.109375 26.703125 6.109375 
Q 34.1875 6.109375 38.703125 11.40625 
Q 43.21875 16.703125 43.21875 25.484375 
L 43.21875 27.484375 
z
M 52.203125 31.203125 
L 52.203125 0 
L 43.21875 0 
L 43.21875 8.296875 
Q 40.140625 3.328125 35.546875 0.953125 
Q 30.953125 -1.421875 24.3125 -1.421875 
Q 15.921875 -1.421875 10.953125 3.296875 
Q 6 8.015625 6 15.921875 
Q 6 25.140625 12.171875 29.828125 
Q 18.359375 34.515625 30.609375 34.515625 
L 43.21875 34.515625 
L 43.21875 35.40625 
Q 43.21875 41.609375 39.140625 45 
Q 35.0625 48.390625 27.6875 48.390625 
Q 23 48.390625 18.546875 47.265625 
Q 14.109375 46.140625 10.015625 43.890625 
L 10.015625 52.203125 
Q 14.9375 54.109375 19.578125 55.046875 
Q 24.21875 56 28.609375 56 
Q 40.484375 56 46.34375 49.84375 
Q 52.203125 43.703125 52.203125 31.203125 
z
" id="DejaVuSans-61"/>
      <path d="M 18.3125 70.21875 
L 18.3125 54.6875 
L 36.8125 54.6875 
L 36.8125 47.703125 
L 18.3125 47.703125 
L 18.3125 18.015625 
Q 18.3125 11.328125 20.140625 9.421875 
Q 21.96875 7.515625 27.59375 7.515625 
L 36.8125 7.515625 
L 36.8125 0 
L 27.59375 0 
Q 17.1875 0 13.234375 3.875 
Q 9.28125 7.765625 9.28125 18.015625 
L 9.28125 47.703125 
L 2.6875 47.703125 
L 2.6875 54.6875 
L 9.28125 54.6875 
L 9.28125 70.21875 
z
" id="DejaVuSans-74"/>
      <path d="M 8.5 21.578125 
L 8.5 54.6875 
L 17.484375 54.6875 
L 17.484375 21.921875 
Q 17.484375 14.15625 20.5 10.265625 
Q 23.53125 6.390625 29.59375 6.390625 
Q 36.859375 6.390625 41.078125 11.03125 
Q 45.3125 15.671875 45.3125 23.6875 
L 45.3125 54.6875 
L 54.296875 54.6875 
L 54.296875 0 
L 45.3125 0 
L 45.3125 8.40625 
Q 42.046875 3.421875 37.71875 1 
Q 33.40625 -1.421875 27.6875 -1.421875 
Q 18.265625 -1.421875 13.375 4.4375 
Q 8.5 10.296875 8.5 21.578125 
z
M 31.109375 56 
z
" id="DejaVuSans-75"/>
      <path id="DejaVuSans-20"/>
      <path d="M 31 75.875 
Q 24.46875 64.65625 21.28125 53.65625 
Q 18.109375 42.671875 18.109375 31.390625 
Q 18.109375 20.125 21.3125 9.0625 
Q 24.515625 -2 31 -13.1875 
L 23.1875 -13.1875 
Q 15.875 -1.703125 12.234375 9.375 
Q 8.59375 20.453125 8.59375 31.390625 
Q 8.59375 42.28125 12.203125 53.3125 
Q 15.828125 64.359375 23.1875 75.875 
z
" id="DejaVuSans-28"/>
      <path d="M 9.8125 72.90625 
L 51.703125 72.90625 
L 51.703125 64.59375 
L 19.671875 64.59375 
L 19.671875 43.109375 
L 48.578125 43.109375 
L 48.578125 34.8125 
L 19.671875 34.8125 
L 19.671875 0 
L 9.8125 0 
z
" id="DejaVuSans-46"/>
      <path d="M 8.015625 75.875 
L 15.828125 75.875 
Q 23.140625 64.359375 26.78125 53.3125 
Q 30.421875 42.28125 30.421875 31.390625 
Q 30.421875 20.453125 26.78125 9.375 
Q 23.140625 -1.703125 15.828125 -13.1875 
L 8.015625 -13.1875 
Q 14.5 -2 17.703125 9.0625 
Q 20.90625 20.125 20.90625 31.390625 
Q 20.90625 42.671875 17.703125 53.65625 
Q 14.5 64.65625 8.015625 75.875 
z
" id="DejaVuSans-29"/>
     </defs>
     <g transform="translate(19.3575 243.89)rotate(-90)scale(0.16 -0.16)">
      <use xlink:href="#DejaVuSans-54"/>
      <use x="60.818359" xlink:href="#DejaVuSans-65"/>
      <use x="122.341797" xlink:href="#DejaVuSans-6d"/>
      <use x="219.753906" xlink:href="#DejaVuSans-70"/>
      <use x="283.230469" xlink:href="#DejaVuSans-65"/>
      <use x="344.753906" xlink:href="#DejaVuSans-72"/>
      <use x="385.867188" xlink:href="#DejaVuSans-61"/>
      <use x="447.146484" xlink:href="#DejaVuSans-74"/>
      <use x="486.355469" xlink:href="#DejaVuSans-75"/>
      <use x="549.734375" xlink:href="#DejaVuSans-72"/>
      <use x="590.816406" xlink:href="#DejaVuSans-65"/>
      <use x="652.339844" xlink:href="#DejaVuSans-20"/>
      <use x="684.126953" xlink:href="#DejaVuSans-28"/>
      <use x="723.140625" xlink:href="#DejaVuSans-46"/>
      <use x="780.660156" xlink:href="#DejaVuSans-29"/>
     </g>
    </g>
   </g>
   <g id="line2d_14">
    <path clip-path="url(#p2d3439e22b)" d="M 79.408636 170.758102 
L 80.837574 195.951928 
L 82.266511 206.029458 
L 83.695448 185.874398 
L 85.124385 180.835633 
L 89.411197 180.835633 
L 90.840134 195.951928 
L 92.269072 206.029458 
L 93.698009 221.145753 
L 95.126946 185.874398 
L 96.555883 160.680572 
L 99.413758 160.680572 
L 100.842695 145.564277 
L 102.271633 125.409217 
L 103.70057 160.680572 
L 105.129507 175.796867 
L 106.558444 170.758102 
L 107.987382 130.447982 
L 109.416319 130.447982 
L 110.845256 125.409217 
L 112.274193 160.680572 
L 113.703131 170.758102 
L 115.132068 170.758102 
L 116.561005 125.409217 
L 117.989942 180.835633 
L 120.847817 190.913163 
L 122.276754 216.106988 
L 123.705691 206.029458 
L 125.134629 190.913163 
L 126.563566 216.106988 
L 127.992503 231.223283 
L 129.42144 226.184518 
L 130.850378 241.300813 
L 132.279315 221.145753 
L 133.708252 236.262048 
L 135.13719 261.455873 
L 136.566127 241.300813 
L 137.995064 261.455873 
L 139.424001 236.262048 
L 142.281876 206.029458 
L 143.710813 180.835633 
L 145.13975 216.106988 
L 146.568688 216.106988 
L 147.997625 206.029458 
L 150.855499 226.184518 
L 152.284437 216.106988 
L 153.713374 236.262048 
L 155.142311 216.106988 
L 156.571248 206.029458 
L 158.000186 175.796867 
L 159.429123 170.758102 
L 160.85806 185.874398 
L 162.286997 170.758102 
L 163.715935 190.913163 
L 165.144872 226.184518 
L 166.573809 251.378343 
L 168.002746 261.455873 
L 169.431684 221.145753 
L 170.860621 216.106988 
L 172.289558 175.796867 
L 173.718496 175.796867 
L 175.147433 195.951928 
L 176.57637 170.758102 
L 179.434245 180.835633 
L 180.863182 175.796867 
L 183.721056 185.874398 
L 185.149994 206.029458 
L 186.578931 185.874398 
L 188.007868 206.029458 
L 189.436805 190.913163 
L 190.865743 190.913163 
L 192.29468 180.835633 
L 193.723617 175.796867 
L 196.581492 185.874398 
L 198.010429 170.758102 
L 199.439366 180.835633 
L 200.868303 180.835633 
L 202.297241 160.680572 
L 203.726178 145.564277 
L 205.155115 150.603042 
L 206.584052 160.680572 
L 208.01299 190.913163 
L 209.441927 190.913163 
L 210.870864 175.796867 
L 212.299802 180.835633 
L 213.728739 175.796867 
L 215.157676 160.680572 
L 216.586613 160.680572 
L 219.444488 190.913163 
L 220.873425 185.874398 
L 222.302362 150.603042 
L 223.7313 170.758102 
L 226.589174 170.758102 
L 228.018111 175.796867 
L 229.447049 135.486747 
L 230.875986 160.680572 
L 232.304923 160.680572 
L 233.73386 140.525512 
L 235.162798 135.486747 
L 236.591735 170.758102 
L 238.020672 150.603042 
L 239.449609 170.758102 
L 240.878547 150.603042 
L 242.307484 150.603042 
L 243.736421 135.486747 
L 245.165359 160.680572 
L 246.594296 150.603042 
L 248.023233 150.603042 
L 249.45217 115.331687 
L 250.881108 59.905272 
L 252.310045 44.788977 
L 253.738982 69.982802 
L 255.167919 100.215392 
L 256.596857 145.564277 
L 258.025794 145.564277 
L 259.454731 135.486747 
L 262.312606 95.176627 
L 263.741543 140.525512 
L 265.17048 160.680572 
L 266.599417 115.331687 
L 268.028355 105.254157 
L 269.457292 140.525512 
L 270.886229 115.331687 
L 272.315166 49.827742 
L 273.744104 115.331687 
L 275.173041 145.564277 
L 278.030915 145.564277 
L 279.459853 115.331687 
L 280.88879 105.254157 
L 283.746665 125.409217 
L 285.175602 80.060332 
L 286.604539 115.331687 
L 288.033476 130.447982 
L 289.462414 140.525512 
L 290.891351 115.331687 
L 292.320288 135.486747 
L 293.749225 135.486747 
L 295.178163 125.409217 
L 296.6071 125.409217 
L 298.036037 150.603042 
L 299.464974 100.215392 
L 300.893912 125.409217 
L 302.322849 105.254157 
L 303.751786 125.409217 
L 305.180723 130.447982 
L 306.609661 115.331687 
L 308.038598 105.254157 
L 309.467535 105.254157 
L 310.896472 115.331687 
L 312.32541 130.447982 
L 313.754347 125.409217 
L 315.183284 105.254157 
L 316.612222 105.254157 
L 319.470096 125.409217 
L 320.899033 105.254157 
L 322.327971 115.331687 
L 323.756908 100.215392 
L 325.185845 115.331687 
L 326.614782 115.331687 
L 328.04372 130.447982 
L 329.472657 125.409217 
L 330.901594 105.254157 
L 332.330531 80.060332 
L 333.759469 69.982802 
L 335.188406 85.099097 
L 336.617343 115.331687 
L 339.475218 44.788977 
L 340.904155 80.060332 
L 342.333092 105.254157 
L 343.762029 54.866507 
L 345.190967 90.137862 
L 346.619904 95.176627 
L 348.048841 125.409217 
L 349.477778 115.331687 
L 350.906716 95.176627 
L 352.335653 115.331687 
L 353.76459 105.254157 
L 355.193528 115.331687 
L 356.622465 95.176627 
L 358.051402 80.060332 
L 359.480339 95.176627 
L 360.909277 105.254157 
L 362.338214 85.099097 
L 365.196088 115.331687 
L 366.625026 54.866507 
L 368.053963 85.099097 
L 369.4829 90.137862 
L 370.911837 105.254157 
L 372.340775 115.331687 
L 373.769712 115.331687 
L 375.198649 95.176627 
L 376.627586 105.254157 
L 378.056524 95.176627 
L 379.485461 95.176627 
L 380.914398 69.982802 
L 382.343335 54.866507 
L 383.772273 69.982802 
L 385.20121 80.060332 
L 386.630147 80.060332 
L 388.059085 69.982802 
L 389.488022 85.099097 
L 390.916959 85.099097 
L 392.345896 80.060332 
L 393.774834 95.176627 
L 395.203771 90.137862 
L 396.632708 80.060332 
L 398.061645 80.060332 
L 399.490583 100.215392 
L 400.91952 80.060332 
L 402.348457 85.099097 
L 403.777394 85.099097 
L 405.206332 90.137862 
L 406.635269 85.099097 
L 408.064206 85.099097 
L 409.493143 69.982802 
L 410.922081 49.827742 
L 412.351018 80.060332 
L 413.779955 80.060332 
L 415.208892 115.331687 
L 416.63783 105.254157 
L 418.066767 115.331687 
L 419.495704 90.137862 
L 420.924641 95.176627 
L 422.353579 105.254157 
L 423.782516 95.176627 
L 425.211453 125.409217 
L 426.640391 115.331687 
L 428.069328 90.137862 
L 429.498265 115.331687 
L 430.927202 115.331687 
L 432.35614 100.215392 
L 433.785077 115.331687 
L 438.071889 115.331687 
L 439.500826 85.099097 
L 440.929763 115.331687 
L 443.787638 95.176627 
L 445.216575 115.331687 
L 446.645512 95.176627 
L 448.074449 90.137862 
L 449.503387 115.331687 
L 450.932324 100.215392 
L 452.361261 105.254157 
L 453.790198 95.176627 
L 455.219136 80.060332 
L 456.648073 115.331687 
L 458.07701 90.137862 
L 459.505948 90.137862 
L 460.934885 115.331687 
L 462.363822 90.137862 
L 463.792759 95.176627 
L 465.221697 115.331687 
L 466.650634 115.331687 
L 468.079571 130.447982 
L 469.508508 130.447982 
L 470.937446 125.409217 
L 472.366383 115.331687 
L 473.79532 125.409217 
L 475.224257 125.409217 
L 476.653195 160.680572 
L 478.082132 170.758102 
L 479.511069 160.680572 
L 480.940006 125.409217 
L 482.368944 130.447982 
L 483.797881 145.564277 
L 485.226818 135.486747 
L 486.655755 135.486747 
L 488.084693 145.564277 
L 489.51363 130.447982 
L 490.942567 140.525512 
L 492.371504 125.409217 
L 493.800442 140.525512 
L 496.658316 150.603042 
L 498.087254 140.525512 
L 502.374065 170.758102 
L 503.803003 150.603042 
L 505.23194 170.758102 
L 506.660877 150.603042 
L 508.089814 175.796867 
L 509.518752 150.603042 
L 510.947689 160.680572 
L 512.376626 185.874398 
L 513.805563 170.758102 
L 516.663438 170.758102 
L 518.092375 175.796867 
L 519.521312 175.796867 
L 520.95025 170.758102 
L 522.379187 150.603042 
L 523.808124 160.680572 
L 525.237061 180.835633 
L 528.094936 180.835633 
L 529.523873 185.874398 
L 535.239622 185.874398 
L 536.66856 175.796867 
L 538.097497 140.525512 
L 539.526434 170.758102 
L 540.955371 180.835633 
L 542.384309 160.680572 
L 543.813246 185.874398 
L 545.242183 190.913163 
L 546.67112 185.874398 
L 548.100058 206.029458 
L 549.528995 206.029458 
L 550.957932 221.145753 
L 552.386869 241.300813 
L 553.815807 221.145753 
L 555.244744 216.106988 
L 556.673681 221.145753 
L 558.102618 175.796867 
L 559.531556 206.029458 
L 560.960493 216.106988 
L 562.38943 206.029458 
L 563.818367 175.796867 
L 565.247305 150.603042 
L 566.676242 140.525512 
L 568.105179 175.796867 
L 569.534117 175.796867 
L 570.963054 170.758102 
L 572.391991 190.913163 
L 573.820928 170.758102 
L 576.678803 150.603042 
L 578.10774 180.835633 
L 579.536677 185.874398 
L 580.965615 175.796867 
L 582.394552 170.758102 
L 583.823489 170.758102 
L 585.252426 190.913163 
L 586.681364 175.796867 
L 586.681364 175.796867 
" style="fill:none;opacity:0.5;stroke:#ff0000;stroke-linecap:square;stroke-width:1.5;"/>
   </g>
   <g id="line2d_15">
    <path clip-path="url(#p2d3439e22b)" d="M 79.408636 216.106988 
L 80.837574 226.184518 
L 82.266511 231.223283 
L 83.695448 231.223283 
L 85.124385 195.951928 
L 86.553323 195.951928 
L 87.98226 206.029458 
L 89.411197 206.029458 
L 90.840134 216.106988 
L 92.269072 251.378343 
L 93.698009 251.378343 
L 95.126946 231.223283 
L 96.555883 216.106988 
L 97.984821 190.913163 
L 99.413758 195.951928 
L 100.842695 170.758102 
L 102.271633 180.835633 
L 103.70057 206.029458 
L 105.129507 216.106988 
L 106.558444 195.951928 
L 107.987382 170.758102 
L 109.416319 160.680572 
L 110.845256 180.835633 
L 112.274193 206.029458 
L 115.132068 226.184518 
L 116.561005 180.835633 
L 117.989942 216.106988 
L 119.41888 236.262048 
L 120.847817 251.378343 
L 122.276754 261.455873 
L 125.134629 261.455873 
L 126.563566 251.378343 
L 127.992503 276.572168 
L 130.850378 296.727228 
L 132.279315 286.649698 
L 133.708252 296.727228 
L 135.13719 276.572168 
L 136.566127 296.727228 
L 137.995064 306.804758 
L 139.424001 311.843523 
L 140.852939 251.378343 
L 142.281876 236.262048 
L 143.710813 261.455873 
L 146.568688 241.300813 
L 147.997625 261.455873 
L 153.713374 261.455873 
L 155.142311 266.494638 
L 156.571248 286.649698 
L 158.000186 251.378343 
L 159.429123 226.184518 
L 160.85806 236.262048 
L 162.286997 236.262048 
L 163.715935 261.455873 
L 165.144872 271.533403 
L 166.573809 286.649698 
L 168.002746 276.572168 
L 169.431684 296.727228 
L 170.860621 306.804758 
L 172.289558 241.300813 
L 173.718496 195.951928 
L 175.147433 221.145753 
L 176.57637 226.184518 
L 178.005307 206.029458 
L 179.434245 216.106988 
L 180.863182 206.029458 
L 182.292119 226.184518 
L 183.721056 226.184518 
L 185.149994 231.223283 
L 186.578931 226.184518 
L 188.007868 231.223283 
L 189.436805 241.300813 
L 190.865743 261.455873 
L 192.29468 251.378343 
L 193.723617 231.223283 
L 195.152554 251.378343 
L 196.581492 216.106988 
L 198.010429 216.106988 
L 199.439366 206.029458 
L 200.868303 216.106988 
L 202.297241 251.378343 
L 203.726178 236.262048 
L 205.155115 226.184518 
L 208.01299 226.184518 
L 209.441927 236.262048 
L 210.870864 241.300813 
L 212.299802 251.378343 
L 213.728739 206.029458 
L 216.586613 206.029458 
L 218.015551 216.106988 
L 219.444488 221.145753 
L 220.873425 216.106988 
L 222.302362 236.262048 
L 223.7313 251.378343 
L 225.160237 226.184518 
L 226.589174 206.029458 
L 228.018111 190.913163 
L 229.447049 195.951928 
L 230.875986 190.913163 
L 232.304923 206.029458 
L 233.73386 170.758102 
L 235.162798 180.835633 
L 236.591735 216.106988 
L 238.020672 226.184518 
L 239.449609 195.951928 
L 242.307484 216.106988 
L 243.736421 190.913163 
L 248.023233 190.913163 
L 249.45217 206.029458 
L 250.881108 195.951928 
L 252.310045 125.409217 
L 255.167919 195.951928 
L 256.596857 180.835633 
L 260.883668 180.835633 
L 262.312606 185.874398 
L 263.741543 160.680572 
L 265.17048 170.758102 
L 266.599417 175.796867 
L 268.028355 150.603042 
L 269.457292 160.680572 
L 270.886229 160.680572 
L 272.315166 170.758102 
L 273.744104 150.603042 
L 276.601978 170.758102 
L 279.459853 180.835633 
L 280.88879 195.951928 
L 282.317727 180.835633 
L 283.746665 170.758102 
L 285.175602 180.835633 
L 286.604539 175.796867 
L 288.033476 150.603042 
L 289.462414 160.680572 
L 290.891351 160.680572 
L 292.320288 150.603042 
L 293.749225 170.758102 
L 295.178163 175.796867 
L 296.6071 170.758102 
L 298.036037 180.835633 
L 300.893912 170.758102 
L 302.322849 180.835633 
L 303.751786 150.603042 
L 305.180723 160.680572 
L 308.038598 160.680572 
L 309.467535 175.796867 
L 310.896472 140.525512 
L 312.32541 160.680572 
L 315.183284 160.680572 
L 316.612222 175.796867 
L 318.041159 160.680572 
L 320.899033 180.835633 
L 323.756908 140.525512 
L 325.185845 135.486747 
L 326.614782 140.525512 
L 329.472657 160.680572 
L 330.901594 160.680572 
L 332.330531 150.603042 
L 333.759469 130.447982 
L 335.188406 140.525512 
L 336.617343 135.486747 
L 338.04628 150.603042 
L 339.475218 125.409217 
L 340.904155 135.486747 
L 342.333092 140.525512 
L 343.762029 150.603042 
L 345.190967 125.409217 
L 346.619904 125.409217 
L 348.048841 135.486747 
L 350.906716 135.486747 
L 353.76459 125.409217 
L 358.051402 125.409217 
L 359.480339 140.525512 
L 360.909277 145.564277 
L 362.338214 145.564277 
L 363.767151 130.447982 
L 365.196088 140.525512 
L 366.625026 140.525512 
L 368.053963 125.409217 
L 369.4829 125.409217 
L 372.340775 135.486747 
L 373.769712 135.486747 
L 375.198649 125.409217 
L 378.056524 145.564277 
L 379.485461 130.447982 
L 380.914398 150.603042 
L 383.772273 140.525512 
L 385.20121 140.525512 
L 386.630147 115.331687 
L 388.059085 135.486747 
L 389.488022 125.409217 
L 390.916959 150.603042 
L 392.345896 125.409217 
L 393.774834 115.331687 
L 395.203771 115.331687 
L 396.632708 105.254157 
L 399.490583 125.409217 
L 400.91952 115.331687 
L 402.348457 125.409217 
L 403.777394 140.525512 
L 405.206332 125.409217 
L 406.635269 125.409217 
L 408.064206 140.525512 
L 409.493143 160.680572 
L 410.922081 150.603042 
L 412.351018 125.409217 
L 415.208892 125.409217 
L 416.63783 135.486747 
L 418.066767 135.486747 
L 419.495704 145.564277 
L 420.924641 150.603042 
L 422.353579 145.564277 
L 423.782516 160.680572 
L 425.211453 150.603042 
L 426.640391 160.680572 
L 428.069328 160.680572 
L 429.498265 140.525512 
L 430.927202 140.525512 
L 432.35614 130.447982 
L 433.785077 135.486747 
L 435.214014 150.603042 
L 436.642951 170.758102 
L 438.071889 170.758102 
L 439.500826 150.603042 
L 440.929763 135.486747 
L 442.3587 135.486747 
L 443.787638 125.409217 
L 445.216575 135.486747 
L 448.074449 135.486747 
L 449.503387 160.680572 
L 450.932324 125.409217 
L 453.790198 145.564277 
L 455.219136 140.525512 
L 456.648073 170.758102 
L 458.07701 170.758102 
L 459.505948 160.680572 
L 460.934885 135.486747 
L 462.363822 140.525512 
L 463.792759 140.525512 
L 465.221697 150.603042 
L 466.650634 175.796867 
L 468.079571 180.835633 
L 469.508508 216.106988 
L 470.937446 206.029458 
L 472.366383 140.525512 
L 475.224257 160.680572 
L 476.653195 190.913163 
L 478.082132 216.106988 
L 479.511069 226.184518 
L 480.940006 185.874398 
L 482.368944 160.680572 
L 483.797881 160.680572 
L 485.226818 170.758102 
L 486.655755 206.029458 
L 488.084693 170.758102 
L 489.51363 160.680572 
L 490.942567 170.758102 
L 492.371504 216.106988 
L 493.800442 180.835633 
L 495.229379 175.796867 
L 496.658316 190.913163 
L 498.087254 170.758102 
L 499.516191 206.029458 
L 500.945128 206.029458 
L 502.374065 221.145753 
L 503.803003 216.106988 
L 508.089814 216.106988 
L 509.518752 190.913163 
L 510.947689 206.029458 
L 512.376626 206.029458 
L 513.805563 195.951928 
L 515.234501 206.029458 
L 516.663438 221.145753 
L 518.092375 216.106988 
L 519.521312 226.184518 
L 520.95025 226.184518 
L 522.379187 175.796867 
L 523.808124 216.106988 
L 526.665999 226.184518 
L 528.094936 236.262048 
L 529.523873 251.378343 
L 530.95281 261.455873 
L 533.810685 261.455873 
L 535.239622 231.223283 
L 536.66856 216.106988 
L 538.097497 185.874398 
L 539.526434 206.029458 
L 540.955371 231.223283 
L 542.384309 206.029458 
L 543.813246 216.106988 
L 545.242183 216.106988 
L 546.67112 206.029458 
L 548.100058 241.300813 
L 549.528995 261.455873 
L 550.957932 261.455873 
L 552.386869 276.572168 
L 553.815807 261.455873 
L 555.244744 241.300813 
L 556.673681 251.378343 
L 558.102618 221.145753 
L 559.531556 261.455873 
L 560.960493 261.455873 
L 562.38943 241.300813 
L 563.818367 216.106988 
L 565.247305 175.796867 
L 566.676242 180.835633 
L 568.105179 195.951928 
L 569.534117 221.145753 
L 570.963054 206.029458 
L 572.391991 216.106988 
L 573.820928 206.029458 
L 575.249866 170.758102 
L 576.678803 185.874398 
L 578.10774 216.106988 
L 579.536677 231.223283 
L 580.965615 195.951928 
L 582.394552 190.913163 
L 583.823489 195.951928 
L 585.252426 216.106988 
L 586.681364 206.029458 
L 586.681364 206.029458 
" style="fill:none;opacity:0.5;stroke:#0000ff;stroke-linecap:square;stroke-width:1.5;"/>
   </g>
   <g id="patch_3">
    <path d="M 54.045 325.19625 
L 54.045 31.43625 
" style="fill:none;stroke:#000000;stroke-linecap:square;stroke-linejoin:miter;stroke-width:0.8;"/>
   </g>
   <g id="patch_4">
    <path d="M 612.045 325.19625 
L 612.045 31.43625 
" style="fill:none;stroke:#000000;stroke-linecap:square;stroke-linejoin:miter;stroke-width:0.8;"/>
   </g>
   <g id="patch_5">
    <path d="M 54.045 325.19625 
L 612.045 325.19625 
" style="fill:none;stroke:#000000;stroke-linecap:square;stroke-linejoin:miter;stroke-width:0.8;"/>
   </g>
   <g id="patch_6">
    <path d="M 54.045 31.43625 
L 612.045 31.43625 
" style="fill:none;stroke:#000000;stroke-linecap:square;stroke-linejoin:miter;stroke-width:0.8;"/>
   </g>
   <g id="text_15">
    <!-- Daily high and low temperatures - 2014 -->
    <defs>
     <path d="M 19.671875 64.796875 
L 19.671875 8.109375 
L 31.59375 8.109375 
Q 46.6875 8.109375 53.6875 14.9375 
Q 60.6875 21.78125 60.6875 36.53125 
Q 60.6875 51.171875 53.6875 57.984375 
Q 46.6875 64.796875 31.59375 64.796875 
z
M 9.8125 72.90625 
L 30.078125 72.90625 
Q 51.265625 72.90625 61.171875 64.09375 
Q 71.09375 55.28125 71.09375 36.53125 
Q 71.09375 17.671875 61.125 8.828125 
Q 51.171875 0 30.078125 0 
L 9.8125 0 
z
" id="DejaVuSans-44"/>
     <path d="M 9.421875 54.6875 
L 18.40625 54.6875 
L 18.40625 0 
L 9.421875 0 
z
M 9.421875 75.984375 
L 18.40625 75.984375 
L 18.40625 64.59375 
L 9.421875 64.59375 
z
" id="DejaVuSans-69"/>
     <path d="M 9.421875 75.984375 
L 18.40625 75.984375 
L 18.40625 0 
L 9.421875 0 
z
" id="DejaVuSans-6c"/>
     <path d="M 32.171875 -5.078125 
Q 28.375 -14.84375 24.75 -17.8125 
Q 21.140625 -20.796875 15.09375 -20.796875 
L 7.90625 -20.796875 
L 7.90625 -13.28125 
L 13.1875 -13.28125 
Q 16.890625 -13.28125 18.9375 -11.515625 
Q 21 -9.765625 23.484375 -3.21875 
L 25.09375 0.875 
L 2.984375 54.6875 
L 12.5 54.6875 
L 29.59375 11.921875 
L 46.6875 54.6875 
L 56.203125 54.6875 
z
" id="DejaVuSans-79"/>
     <path d="M 54.890625 33.015625 
L 54.890625 0 
L 45.90625 0 
L 45.90625 32.71875 
Q 45.90625 40.484375 42.875 44.328125 
Q 39.84375 48.1875 33.796875 48.1875 
Q 26.515625 48.1875 22.3125 43.546875 
Q 18.109375 38.921875 18.109375 30.90625 
L 18.109375 0 
L 9.078125 0 
L 9.078125 75.984375 
L 18.109375 75.984375 
L 18.109375 46.1875 
Q 21.34375 51.125 25.703125 53.5625 
Q 30.078125 56 35.796875 56 
Q 45.21875 56 50.046875 50.171875 
Q 54.890625 44.34375 54.890625 33.015625 
z
" id="DejaVuSans-68"/>
     <path d="M 45.40625 27.984375 
Q 45.40625 37.75 41.375 43.109375 
Q 37.359375 48.484375 30.078125 48.484375 
Q 22.859375 48.484375 18.828125 43.109375 
Q 14.796875 37.75 14.796875 27.984375 
Q 14.796875 18.265625 18.828125 12.890625 
Q 22.859375 7.515625 30.078125 7.515625 
Q 37.359375 7.515625 41.375 12.890625 
Q 45.40625 18.265625 45.40625 27.984375 
z
M 54.390625 6.78125 
Q 54.390625 -7.171875 48.1875 -13.984375 
Q 42 -20.796875 29.203125 -20.796875 
Q 24.46875 -20.796875 20.265625 -20.09375 
Q 16.0625 -19.390625 12.109375 -17.921875 
L 12.109375 -9.1875 
Q 16.0625 -11.328125 19.921875 -12.34375 
Q 23.78125 -13.375 27.78125 -13.375 
Q 36.625 -13.375 41.015625 -8.765625 
Q 45.40625 -4.15625 45.40625 5.171875 
L 45.40625 9.625 
Q 42.625 4.78125 38.28125 2.390625 
Q 33.9375 0 27.875 0 
Q 17.828125 0 11.671875 7.65625 
Q 5.515625 15.328125 5.515625 27.984375 
Q 5.515625 40.671875 11.671875 48.328125 
Q 17.828125 56 27.875 56 
Q 33.9375 56 38.28125 53.609375 
Q 42.625 51.21875 45.40625 46.390625 
L 45.40625 54.6875 
L 54.390625 54.6875 
z
" id="DejaVuSans-67"/>
     <path d="M 54.890625 33.015625 
L 54.890625 0 
L 45.90625 0 
L 45.90625 32.71875 
Q 45.90625 40.484375 42.875 44.328125 
Q 39.84375 48.1875 33.796875 48.1875 
Q 26.515625 48.1875 22.3125 43.546875 
Q 18.109375 38.921875 18.109375 30.90625 
L 18.109375 0 
L 9.078125 0 
L 9.078125 54.6875 
L 18.109375 54.6875 
L 18.109375 46.1875 
Q 21.34375 51.125 25.703125 53.5625 
Q 30.078125 56 35.796875 56 
Q 45.21875 56 50.046875 50.171875 
Q 54.890625 44.34375 54.890625 33.015625 
z
" id="DejaVuSans-6e"/>
     <path d="M 45.40625 46.390625 
L 45.40625 75.984375 
L 54.390625 75.984375 
L 54.390625 0 
L 45.40625 0 
L 45.40625 8.203125 
Q 42.578125 3.328125 38.25 0.953125 
Q 33.9375 -1.421875 27.875 -1.421875 
Q 17.96875 -1.421875 11.734375 6.484375 
Q 5.515625 14.40625 5.515625 27.296875 
Q 5.515625 40.1875 11.734375 48.09375 
Q 17.96875 56 27.875 56 
Q 33.9375 56 38.25 53.625 
Q 42.578125 51.265625 45.40625 46.390625 
z
M 14.796875 27.296875 
Q 14.796875 17.390625 18.875 11.75 
Q 22.953125 6.109375 30.078125 6.109375 
Q 37.203125 6.109375 41.296875 11.75 
Q 45.40625 17.390625 45.40625 27.296875 
Q 45.40625 37.203125 41.296875 42.84375 
Q 37.203125 48.484375 30.078125 48.484375 
Q 22.953125 48.484375 18.875 42.84375 
Q 14.796875 37.203125 14.796875 27.296875 
z
" id="DejaVuSans-64"/>
     <path d="M 30.609375 48.390625 
Q 23.390625 48.390625 19.1875 42.75 
Q 14.984375 37.109375 14.984375 27.296875 
Q 14.984375 17.484375 19.15625 11.84375 
Q 23.34375 6.203125 30.609375 6.203125 
Q 37.796875 6.203125 41.984375 11.859375 
Q 46.1875 17.53125 46.1875 27.296875 
Q 46.1875 37.015625 41.984375 42.703125 
Q 37.796875 48.390625 30.609375 48.390625 
z
M 30.609375 56 
Q 42.328125 56 49.015625 48.375 
Q 55.71875 40.765625 55.71875 27.296875 
Q 55.71875 13.875 49.015625 6.21875 
Q 42.328125 -1.421875 30.609375 -1.421875 
Q 18.84375 -1.421875 12.171875 6.21875 
Q 5.515625 13.875 5.515625 27.296875 
Q 5.515625 40.765625 12.171875 48.375 
Q 18.84375 56 30.609375 56 
z
" id="DejaVuSans-6f"/>
     <path d="M 4.203125 54.6875 
L 13.1875 54.6875 
L 24.421875 12.015625 
L 35.59375 54.6875 
L 46.1875 54.6875 
L 57.421875 12.015625 
L 68.609375 54.6875 
L 77.59375 54.6875 
L 63.28125 0 
L 52.6875 0 
L 40.921875 44.828125 
L 29.109375 0 
L 18.5 0 
z
" id="DejaVuSans-77"/>
     <path d="M 44.28125 53.078125 
L 44.28125 44.578125 
Q 40.484375 46.53125 36.375 47.5 
Q 32.28125 48.484375 27.875 48.484375 
Q 21.1875 48.484375 17.84375 46.4375 
Q 14.5 44.390625 14.5 40.28125 
Q 14.5 37.15625 16.890625 35.375 
Q 19.28125 33.59375 26.515625 31.984375 
L 29.59375 31.296875 
Q 39.15625 29.25 43.1875 25.515625 
Q 47.21875 21.78125 47.21875 15.09375 
Q 47.21875 7.46875 41.1875 3.015625 
Q 35.15625 -1.421875 24.609375 -1.421875 
Q 20.21875 -1.421875 15.453125 -0.5625 
Q 10.6875 0.296875 5.421875 2 
L 5.421875 11.28125 
Q 10.40625 8.6875 15.234375 7.390625 
Q 20.0625 6.109375 24.8125 6.109375 
Q 31.15625 6.109375 34.5625 8.28125 
Q 37.984375 10.453125 37.984375 14.40625 
Q 37.984375 18.0625 35.515625 20.015625 
Q 33.0625 21.96875 24.703125 23.78125 
L 21.578125 24.515625 
Q 13.234375 26.265625 9.515625 29.90625 
Q 5.8125 33.546875 5.8125 39.890625 
Q 5.8125 47.609375 11.28125 51.796875 
Q 16.75 56 26.8125 56 
Q 31.78125 56 36.171875 55.265625 
Q 40.578125 54.546875 44.28125 53.078125 
z
" id="DejaVuSans-73"/>
    </defs>
    <g transform="translate(93.76125 25.43625)scale(0.24 -0.24)">
     <use xlink:href="#DejaVuSans-44"/>
     <use x="77.001953" xlink:href="#DejaVuSans-61"/>
     <use x="138.28125" xlink:href="#DejaVuSans-69"/>
     <use x="166.064453" xlink:href="#DejaVuSans-6c"/>
     <use x="193.847656" xlink:href="#DejaVuSans-79"/>
     <use x="253.027344" xlink:href="#DejaVuSans-20"/>
     <use x="284.814453" xlink:href="#DejaVuSans-68"/>
     <use x="348.193359" xlink:href="#DejaVuSans-69"/>
     <use x="375.976562" xlink:href="#DejaVuSans-67"/>
     <use x="439.453125" xlink:href="#DejaVuSans-68"/>
     <use x="502.832031" xlink:href="#DejaVuSans-20"/>
     <use x="534.619141" xlink:href="#DejaVuSans-61"/>
     <use x="595.898438" xlink:href="#DejaVuSans-6e"/>
     <use x="659.277344" xlink:href="#DejaVuSans-64"/>
     <use x="722.753906" xlink:href="#DejaVuSans-20"/>
     <use x="754.541016" xlink:href="#DejaVuSans-6c"/>
     <use x="782.324219" xlink:href="#DejaVuSans-6f"/>
     <use x="843.505859" xlink:href="#DejaVuSans-77"/>
     <use x="925.292969" xlink:href="#DejaVuSans-20"/>
     <use x="957.080078" xlink:href="#DejaVuSans-74"/>
     <use x="996.289062" xlink:href="#DejaVuSans-65"/>
     <use x="1057.8125" xlink:href="#DejaVuSans-6d"/>
     <use x="1155.224609" xlink:href="#DejaVuSans-70"/>
     <use x="1218.701172" xlink:href="#DejaVuSans-65"/>
     <use x="1280.224609" xlink:href="#DejaVuSans-72"/>
     <use x="1321.337891" xlink:href="#DejaVuSans-61"/>
     <use x="1382.617188" xlink:href="#DejaVuSans-74"/>
     <use x="1421.826172" xlink:href="#DejaVuSans-75"/>
     <use x="1485.205078" xlink:href="#DejaVuSans-72"/>
     <use x="1526.287109" xlink:href="#DejaVuSans-65"/>
     <use x="1587.810547" xlink:href="#DejaVuSans-73"/>
     <use x="1639.910156" xlink:href="#DejaVuSans-20"/>
     <use x="1671.697266" xlink:href="#DejaVuSans-2d"/>
     <use x="1707.78125" xlink:href="#DejaVuSans-20"/>
     <use x="1739.568359" xlink:href="#DejaVuSans-32"/>
     <use x="1803.191406" xlink:href="#DejaVuSans-30"/>
     <use x="1866.814453" xlink:href="#DejaVuSans-31"/>
     <use x="1930.4375" xlink:href="#DejaVuSans-34"/>
    </g>
   </g>
  </g>
 </g>
 <defs>
  <clipPath id="p2d3439e22b">
   <rect height="293.76" width="558" x="54.045" y="31.43625"/>
  </clipPath>
 </defs>
</svg>
